<?xml version="1.0" encoding="UTF-8" standalone="no"?>
<!-- Created with Inkscape (http://www.inkscape.org/) -->

<svg
   width="210mm"
   height="297mm"
   viewBox="0 0 210 297"
   version="1.1"
   id="svg5"
   inkscape:version="1.1.2 (0a00cf5339, 2022-02-04)"
   sodipodi:docname="skyline.svg"
   xmlns:inkscape="http://www.inkscape.org/namespaces/inkscape"
   xmlns:sodipodi="http://sodipodi.sourceforge.net/DTD/sodipodi-0.dtd"
   xmlns="http://www.w3.org/2000/svg"
   xmlns:svg="http://www.w3.org/2000/svg">
  <sodipodi:namedview
     id="namedview7"
     pagecolor="#ffffff"
     bordercolor="#cccccc"
     borderopacity="1"
     inkscape:pageshadow="0"
     inkscape:pageopacity="1"
     inkscape:pagecheckerboard="0"
     inkscape:document-units="mm"
     showgrid="false"
     inkscape:zoom="0.75098906"
     inkscape:cx="298.27332"
     inkscape:cy="434.09421"
     inkscape:window-width="1920"
     inkscape:window-height="1022"
     inkscape:window-x="0"
     inkscape:window-y="27"
     inkscape:window-maximized="1"
     inkscape:current-layer="layer1" />
  <defs
     id="defs2" />
  <g
     inkscape:label="Layer 1"
     inkscape:groupmode="layer"
     id="layer1">
    <path
       id="path846"
       style="opacity:1;fill:#000000;fill-opacity:1;stroke:#000000;stroke-width:0.212586"
       d="M 63.499998,0.10629313 A 63.393864,63.393606 0 0 0 0.10629314,63.500254 63.393864,63.393606 0 0 0 63.499998,126.8937 63.393864,63.393606 0 0 0 126.89371,63.500254 a 63.393864,63.393606 0 0 0 -0.58343,-8.55347 3.5434913,4.1831576 72.253115 0 0 -0.0982,0.15193 1.2224088,6.5876372 70.933006 0 0 -3.60237,2.44584 1.2224088,6.5876372 70.933006 0 0 3.20291,-0.0227 3.5434913,4.1831576 72.253115 0 0 0.045,0.23099 3.5434913,4.1831576 72.253115 0 0 0.3173,0.60823 4.1699552,4.5552944 17.813347 0 0 0.18396,1.2392 3.5434913,4.1831576 72.253115 0 0 -2.28565,4.33151 3.5434913,4.1831576 72.253115 0 0 0.2961,0.43201 4.1831576,3.5434913 17.812163 0 0 1.29347,2.77193 l -1.15498,6.60785 a 6.5876362,1.2224089 22.382479 0 0 -5.28857,-0.8847 6.5876362,1.2224089 22.382479 0 0 3.83698,2.8422 4.169952,4.5552978 32.189764 0 0 -2.35232,1.94251 4.169952,4.5552978 32.189764 0 0 -0.61288,1.8557 6.587637,1.2224088 19.673838 0 0 -1.71773,0.21085 6.587637,1.2224088 19.673838 0 0 1.87638,1.65931 4.169952,4.5552978 32.189764 0 0 0.11472,0.65526 4.1831544,3.5434941 32.187932 0 0 -3.17915,1.50017 4.1831544,3.5434941 32.187932 0 0 1.65263,5.22706 4.1831544,3.5434941 32.187932 0 1 5.1e-4,5.2e-4 4.1831544,3.5434941 32.187932 0 1 5.2e-4,5.1e-4 4.1831544,3.5434941 32.187932 0 1 5.2e-4,0 4.1831544,3.5434941 32.187932 0 1 5.2e-4,5.2e-4 4.1831544,3.5434941 32.187932 0 1 5.1e-4,0 4.1831544,3.5434941 32.187932 0 1 5.2e-4,5.2e-4 4.1831544,3.5434941 32.187932 0 1 5.2e-4,0 4.1831544,3.5434941 32.187932 0 1 0,5.1e-4 4.1831544,3.5434941 32.187932 0 1 5.1e-4,0 4.1831544,3.5434941 32.187932 0 1 5.2e-4,5.2e-4 4.1831544,3.5434941 32.187932 0 1 5.1e-4,0 4.1831544,3.5434941 32.187932 0 1 5.2e-4,5.2e-4 4.1831544,3.5434941 32.187932 0 0 -1.47175,1.19786 4.1831544,3.5434941 32.187932 0 0 0.48731,4.20335 4.169952,4.5552978 32.189764 0 0 -2.49804,1.99522 4.169952,4.5552978 32.189764 0 0 -0.73536,2.1668 l -2.01539,1.946636 a 4.1831553,3.5434934 28.937754 0 0 -3.35639,1.66656 4.1831553,3.5434934 28.937754 0 0 -0.34417,1.31258 l -1.35857,2.15853 a 6.5876283,1.2224103 41.452885 0 0 -5.42242,-3.16208 6.5876283,1.2224103 41.452885 0 0 3.34761,4.5656 6.5876283,1.2224103 41.452885 0 0 -2.47428,-0.91569 6.5876283,1.2224103 41.452885 0 0 1.77199,2.94813 4.1699488,4.5553014 43.315671 0 0 -0.83613,0.33382 6.5876283,1.2224103 41.452885 0 0 -0.894,-0.0879 6.5876283,1.2224103 41.452885 0 0 0.0429,0.39585 6.5876296,1.2224102 38.744237 0 0 -2.19057,-0.61754 6.5876296,1.2224102 38.744237 0 0 1.15342,2.0836 4.1699488,4.5553014 43.315671 0 0 -0.60927,1.5999 l -0.57412,0.3364 a 4.1831512,3.5434968 43.313641 0 0 -3.733642,0.6997 4.1831512,3.5434968 43.313641 0 0 -0.0248,0.0372 4.1699405,4.5553104 78.874722 0 0 -1.72651,1.04438 4.1831512,3.5434968 43.313641 0 0 -4.28244,0.18965 4.1831428,3.5435039 78.873952 0 0 -0.0346,-0.003 4.1831428,3.5435039 78.873952 0 0 -2.69907,3.72742 4.1699488,4.5553014 43.315671 0 0 -1.66347,0.81441 4.1831428,3.5435039 78.873952 0 0 -0.18655,0.004 4.1831428,3.5435039 78.873952 0 0 -0.22376,0.0723 6.5876141,1.222413 80.193954 0 0 -1.52705,-2.81583 6.5876141,1.222413 80.193954 0 0 -0.40255,4.33564 4.1831428,3.5435039 78.873952 0 0 -0.16072,0.29817 4.5553112,4.1699398 0 0 0 -2.69493,-0.82837 4.5553112,4.1699398 0 0 0 -3.45251,1.5782 6.5876139,1.2224132 80.735522 0 0 -1.1343,-1.69602 6.5876139,1.2224132 80.735522 0 0 -0.4315,0.93792 3.5435044,4.1831422 0 0 0 -0.55604,-0.28318 6.5876139,1.2224132 80.735522 0 0 -1.63659,-3.33829 6.5876139,1.2224132 80.735522 0 0 -0.50333,3.15897 3.5435044,4.1831422 0 0 0 -2.62466,3.64525 l -0.53537,0.13178 a 3.5435044,4.1831422 0 0 0 -0.7462,-0.32866 v -3.50883 l 0.12299,-0.23565 -0.12299,-0.14624 v -0.0367 h -0.031 l -4.56253,-5.4317 -2.83187,5.4317 h -0.21136 v 0.40566 l -0.0506,0.0977 0.0506,0.0605 v 4.43642 l -0.23513,-3.42305 0.0708,-0.24649 -0.0971,-0.13384 -0.003,-0.0362 -0.0222,0.003 -3.60031,-4.96764 -1.6335,5.67871 -0.14935,0.0202 0.0279,0.40359 -0.0295,0.10232 0.0398,0.0553 0.0992,1.44333 a 3.5435044,4.1831422 0 0 0 -0.94051,-0.22428 3.5435044,4.1831422 0 0 0 -1.79782,0.60772 3.5435044,4.1831422 0 0 0 0,-5.2e-4 3.5435044,4.1831422 0 0 0 0,-5.2e-4 3.5435044,4.1831422 0 0 0 0,-5.2e-4 3.5435044,4.1831422 0 0 0 0,-5.1e-4 3.5435044,4.1831422 0 0 0 0,-5.2e-4 3.5435044,4.1831422 0 0 0 0,-5.2e-4 3.5435044,4.1831422 0 0 0 0,-5.1e-4 3.5435044,4.1831422 0 0 0 0,-5.2e-4 3.5435044,4.1831422 0 0 0 0,-5.2e-4 3.5435044,4.1831422 0 0 0 0,-5.1e-4 3.5435044,4.1831422 0 0 0 0,-5.2e-4 3.5435044,4.1831422 0 0 0 0,-5.2e-4 3.5435044,4.1831422 0 0 0 0,-5.1e-4 3.5435044,4.1831422 0 0 0 0,-5.2e-4 3.5435044,4.1831422 0 0 0 -2.669102,-4.0411 1.2224131,6.5876139 9.2644777 0 0 -0.515214,-2.72954 1.2224131,6.5876139 9.2644777 0 0 -1.524975,2.93573 3.5435044,4.1831422 0 0 0 -0.730707,0.38551 1.2224131,6.5876139 9.2644777 0 0 -0.368454,-0.63769 1.2224131,6.5876139 9.2644777 0 0 -1.023713,1.44539 4.5553112,4.1699398 0 0 0 -3.5631,-1.69654 4.5553112,4.1699398 0 0 0 -2.69493,0.82838 3.5435039,4.1831428 11.126048 0 0 -0.160717,-0.29818 1.2224131,6.5876141 9.8060459 0 0 -0.402559,-4.33564 1.2224131,6.5876141 9.8060459 0 0 -1.527044,2.81584 3.5435039,4.1831428 11.126048 0 0 -0.223758,-0.0724 3.5435039,4.1831428 11.126048 0 0 -0.685749,-0.0155 4.5553014,4.1699488 46.684329 0 0 -1.174092,-0.43717 3.5435039,4.1831428 11.126048 0 0 -2.689248,-4.09329 3.5435039,4.1831428 11.126048 0 0 -0.521415,0.0506 3.5434968,4.1831512 46.686359 0 0 -3.545013,-0.0351 4.5553104,4.1699405 11.125278 0 0 -2.626718,-1.48932 4.5553104,4.1699405 11.125278 0 0 -0.240298,0.007 3.5434968,4.1831512 46.686359 0 0 -2.432416,-0.24546 l -1.120863,-0.6568 a 4.5553014,4.1699488 46.684329 0 0 -1.079524,-2.02882 4.5553014,4.1699488 46.684329 0 0 -0.636138,-0.44338 1.2224104,6.5876283 48.547115 0 0 0.222726,-0.92501 1.2224104,6.5876283 48.547115 0 0 -1.211816,0.23513 4.5553014,4.1699488 46.684329 0 0 -0.793752,-0.16382 1.2224104,6.5876283 48.547115 0 0 2.047425,-3.26542 1.2224104,6.5876283 48.547115 0 0 -2.474273,0.9157 1.2224104,6.5876283 48.547115 0 0 3.347607,-4.56561 1.2224104,6.5876283 48.547115 0 0 -5.422422,3.16208 l -1.390098,-2.20864 -0.386025,0.24287 -4.344963,-4.197146 -0.387058,-0.57722 a 1.2224089,6.5876365 68.605484 0 0 4.430748,-3.02049 1.2224089,6.5876365 68.605484 0 0 -4.737192,0.60255 4.5552934,4.1699561 78.410883 0 0 0.354503,-3.02978 4.5552934,4.1699561 78.410883 0 0 -2.7858839,-3.39824 3.5434906,4.1831585 78.411684 0 0 1.257808,-3.283 3.5434906,4.1831585 78.411684 0 0 -1.373564,-1.96628 3.5434941,4.1831544 57.812068 0 0 -0.272336,-1.04284 3.5434941,4.1831544 57.812068 0 0 -2.935229,-1.4552 3.5434906,4.1831585 78.411684 0 0 -0.0016,-0.0481 3.5434906,4.1831585 78.411684 0 0 -0.162263,-0.45424 4.5552978,4.169952 57.810236 0 0 -0.419615,-3.92378 4.5552978,4.169952 57.810236 0 0 -2.352315,-1.94252 1.222409,6.5876362 67.617521 0 0 3.836984,-2.84219 1.222409,6.5876362 67.617521 0 0 -4.68758,0.69556 l 0.264066,-6.83419 0.447004,-0.092 -0.52452,-2.55643 a 1.2224082,6.58764 87.675852 0 0 6.103004,-1.46813 1.2224082,6.58764 87.675852 0 0 -5.575901,-0.9803 1.2224082,6.58764 87.675852 0 0 2.420014,-1.05109 1.2224082,6.58764 87.675852 0 0 -3.31918796,-0.90227 4.5552926,4.1699568 89.537162 0 0 0.37310596,-0.81959 1.2224082,6.58764 87.675852 0 0 0.705902,-0.555 1.2224082,6.58764 87.675852 0 0 -0.509014,-0.4284 4.5552926,4.1699568 89.537162 0 0 0.116271,-0.57929 4.5552926,4.1699568 89.537162 0 0 -0.84439296,-2.60138 l 0.18190096,-0.64028 a 3.54349,4.1831592 89.537194 0 0 2.211756,-3.08818 3.54349,4.1831592 89.537194 0 0 -0.0077,-0.0439 4.1699512,4.5552988 35.098299 0 0 0.523998,-1.94871 3.54349,4.1831592 89.537194 0 0 2.961068,-3.099548 4.1831536,3.5434947 35.096387 0 0 0.02687,-0.0217 4.1831536,3.5434947 35.096387 0 0 -0.629937,-4.558889 4.5552926,4.1699568 89.537162 0 0 0.63769,-1.738907 4.1831536,3.5434947 35.096387 0 0 0.131775,-0.131776 4.1831536,3.5434947 35.096387 0 0 0.11162,-0.207221 6.5876306,1.22241 36.416709 0 0 3.0504689,0.976684 6.5876306,1.22241 36.416709 0 0 -2.7088849,-3.40909 4.1831536,3.5434947 35.096387 0 0 -0.09043,-0.326077 4.1699479,4.5553023 46.224155 0 0 2.519231,-1.266587 4.1699479,4.5553023 46.224155 0 0 1.4009539,-3.527947 6.5876304,1.2224102 36.958275 0 0 1.992648,0.439766 6.5876304,1.2224102 36.958275 0 0 -0.337448,-0.976165 4.1831503,3.5434975 46.222124 0 0 0.597381,-0.179835 6.5876304,1.2224102 36.958275 0 0 3.491267,1.277957 6.5876304,1.2224102 36.958275 0 0 -1.822115,-2.629293 4.1831503,3.5434975 46.222124 0 0 -0.626837,-4.447784 l 0.295075,-0.465603 a 4.1831503,3.5434975 46.222124 0 0 0.766362,-0.279053 l 2.427765,2.533692 0.0739,0.255282 0.19017,0.02015 0.02532,0.02687 0.02222,-0.0217 7.052298,0.765327 -1.713078,-5.880768 0.152449,-0.146246 -0.280605,-0.293004 -0.03101,-0.10542 -0.07803,-0.0088 -3.069587,-3.203417 2.538352,2.308898 0.119373,0.226859 0.16278,0.02946 0.02687,0.02429 0.01395,-0.01757 6.036857,1.096056 -2.749711,-5.23068 0.09405,-0.117824 -0.299726,-0.271816 -0.04909,-0.09457 -0.06718,-0.0124 -1.070221,-0.97358 a 4.1831503,3.5434975 46.222124 0 0 0.834059,-0.488344 4.1831503,3.5434975 46.222124 0 0 0.877984,-1.68258 4.1831503,3.5434975 46.222124 0 0 5.19e-4,5.16e-4 4.1831503,3.5434975 46.222124 0 0 5.16e-4,5.16e-4 4.1831503,3.5434975 46.222124 0 0 5.16e-4,5.19e-4 4.1831503,3.5434975 46.222124 0 0 5.16e-4,5.16e-4 4.1831503,3.5434975 46.222124 0 0 5.18e-4,5.15e-4 4.1831503,3.5434975 46.222124 0 0 5.16e-4,5.19e-4 4.1831503,3.5434975 46.222124 0 0 5.16e-4,5.16e-4 4.1831503,3.5434975 46.222124 0 0 0,5.16e-4 4.1831503,3.5434975 46.222124 0 0 5.19e-4,0 4.1831503,3.5434975 46.222124 0 0 5.16e-4,5.18e-4 4.1831503,3.5434975 46.222124 0 0 5.16e-4,5.16e-4 4.1831503,3.5434975 46.222124 0 0 4.722721,1.071251 6.5876218,1.2224116 55.487154 0 0 2.260333,1.614369 6.5876218,1.2224116 55.487154 0 0 -0.929661,-3.174995 4.1831503,3.5434975 46.222124 0 0 0.260967,-0.78393 6.5876218,1.2224116 55.487154 0 0 0.706935,0.205671 6.5876218,1.2224116 55.487154 0 0 -0.260968,-1.751828 4.1699479,4.5553023 46.224155 0 0 3.746552,-1.2402319 4.1699479,4.5553023 46.224155 0 0 1.353411,-2.400883 l 0.101801,-0.03514 a 4.1831472,3.5435002 57.347968 0 0 0.239779,0.07752 6.5876217,1.2224118 56.028721 0 0 3.290248,2.852016 6.5876217,1.2224118 56.028721 0 0 -0.845428,-3.089728 4.1831472,3.5435002 57.347968 0 0 0.211873,-0.10232 4.1831472,3.5435002 57.347968 0 0 0.505914,-0.463535 4.5553111,4.1699398 2.9083486 0 0 1.149803,-0.496612 4.1831472,3.5435002 57.347968 0 0 1.673803,1.219563 6.5876136,1.2224131 83.509464 0 0 1.37563,3.061307 6.5876136,1.2224131 83.509464 0 0 0.653708,-2.805507 4.1831472,3.5435002 57.347968 0 0 1.07074,-0.380339 4.1831472,3.5435002 57.347968 0 0 0.341581,-0.397393 3.5435044,4.1831422 2.9085546 0 0 0.554491,-0.214974 4.5553111,4.1699398 3.3153438 0 0 0.852661,0.188103 4.5553111,4.1699398 3.3153438 0 0 4.000296,-1.818491 3.5435044,4.1831422 3.3155785 0 0 2.84892,2.05982 3.5435044,4.1831422 3.3155785 0 0 3.77962,-3.971328 3.5435044,4.1831422 3.3155785 0 1 0,-5.16e-4 3.5435044,4.1831422 3.3155785 0 1 0,-10e-4 3.5435044,4.1831422 3.3155785 0 1 0,-5.16e-4 3.5435044,4.1831422 3.3155785 0 1 0,-5.16e-4 3.5435044,4.1831422 3.3155785 0 1 0,-5.18e-4 3.5435044,4.1831422 3.3155785 0 1 0,-5.16e-4 3.5435044,4.1831422 3.3155785 0 1 0,-5.16e-4 3.5435044,4.1831422 3.3155785 0 1 5.2e-4,-5.16e-4 3.5435044,4.1831422 3.3155785 0 1 -5.2e-4,-5.19e-4 3.5435044,4.1831422 3.3155785 0 1 5.2e-4,-5.16e-4 3.5435044,4.1831422 3.3155785 0 1 -5.2e-4,-5.16e-4 3.5435044,4.1831422 3.3155785 0 1 0,-5.18e-4 3.5435044,4.1831422 3.3155785 0 0 1.76011,0.710035 3.5435044,4.1831422 3.3155785 0 0 0.03,-0.0088 1.2224134,6.5876134 4.7698444 0 0 0.65113,1.670179 1.2224134,6.5876134 4.7698444 0 0 1.10432,-2.196245 3.5435044,4.1831422 3.3155785 0 0 0.0429,-0.01292 1.2224134,6.5876134 4.7698444 0 0 0.74725,5.448755 1.2224134,6.5876134 4.7698444 0 0 1.72755,-6.034763 l 2.53163,0.633035 0.1111,-0.44235 4.00338,0.01654 4.74289,1.460374 -0.0264,0.45527 2.60501,0.150379 a 1.2224129,6.5876145 12.579988 0 0 -0.15038,6.2755759 1.2224129,6.5876145 12.579988 0 0 2.38178,-5.1361129 1.2224129,6.5876145 12.579988 0 0 0.39274,2.608621 1.2224129,6.5876145 12.579988 0 0 1.20974,-1.65881 3.5435036,4.1831432 14.034596 0 0 1.50277,-0.06873 1.2224129,6.5876145 12.579988 0 0 0.0641,0.148827 1.2224129,6.5876145 12.579988 0 0 0.29868,-0.20929 3.5435036,4.1831432 14.034596 0 0 2.4257,4.8983999 3.5435036,4.1831432 14.034596 0 0 3.33314,-1.1162089 4.5553101,4.1699408 14.033639 0 0 3.27629,2.9279829 4.5553101,4.1699408 14.033639 0 0 0.12299,0.01705 3.5435036,4.1831432 14.441619 0 0 1.36323,1.15652 3.543496,4.1831522 50.001846 0 0 0.0139,0.03204 3.543496,4.1831522 50.001846 0 0 0.88006,0.598929 1.2224126,6.5876176 23.840358 0 0 -0.1416,2.677351 1.2224126,6.5876176 23.840358 0 0 2.07585,-2.219498 3.543496,4.1831522 50.001846 0 0 1.752862,-0.493508 4.55531,4.1699408 14.440637 0 0 1.5162,1.063499 3.543496,4.1831522 50.001846 0 0 0.0935,0.161745 3.543496,4.1831522 50.001846 0 0 0.17157,0.160715 1.2224101,6.5876296 51.321044 0 0 -1.72859,2.696989 1.2224101,6.5876296 51.321044 0 0 3.99098,-1.740977 3.543496,4.1831522 50.001846 0 0 0.33901,-0.0031 4.555297,4.1699528 61.125807 0 0 0.57568,2.759519 4.555297,4.1699528 61.125807 0 0 3.04942,2.261355 1.2224102,6.5876298 51.862609 0 0 -0.93741,1.81229 1.2224102,6.5876298 51.862609 0 0 1.02939,-0.07493 3.5434934,4.1831553 61.127526 0 0 0.0207,0.623733 1.2224102,6.5876298 51.862609 0 0 -2.13321,3.04477 1.2224102,6.5876298 51.862609 0 0 3.00913,-1.084687 3.5434934,4.1831553 61.127526 0 0 4.45969,0.537953 l 0.37362,0.405142 a 3.5434934,4.1831553 61.127526 0 0 0.0729,0.812352 l -3.07269,1.694468 -0.26561,0.0057 -0.0687,0.178284 -0.032,0.01809 0.015,0.02739 -2.55334,6.618189 6.12368,-0.143141 0.10232,0.185001 0.35501,-0.195855 0.11007,-0.0031 0.0284,-0.07338 3.76929,-2.077905 A 63.393864,63.393606 0 0 0 63.499718,0.10642913 Z M 119.67759,34.13517 l -2.77245,1.786969 -0.25012,0.05684 -0.0703,0.149862 -0.03,0.02015 0.0129,0.0186 -2.61173,5.551073 5.76194,-1.311545 0.0899,0.120922 0.33952,-0.219106 0.10387,-0.02377 0.0294,-0.06149 1.21596,-0.78393 a 3.5434934,4.1831553 61.127526 0 0 0.25786,0.931723 3.5434934,4.1831553 61.127526 0 0 1.17616,1.076419 63.393864,63.393606 0 0 0 -3.25304,-7.31272 z m 3.36156,7.61141 a 3.5434934,4.1831553 61.127526 0 0 -2.14096,4.198188 1.2224087,6.5876371 70.391442 0 0 -2.14148,1.768879 1.2224087,6.5876371 70.391442 0 0 3.30731,-0.08216 3.5434934,4.1831553 61.127526 0 0 0.69039,0.453717 1.2224087,6.5876371 70.391442 0 0 -0.38033,0.63096 1.2224087,6.5876371 70.391442 0 0 1.75958,0.19844 4.555297,4.1699528 61.125807 0 0 0.23513,3.93929 4.555297,4.1699528 61.125807 0 0 1.91048,1.8774 63.393864,63.393606 0 0 0 -3.24012,-12.984711 z"
       inkscape:export-filename="/home/jon/planisphere/skyline.png"
       inkscape:export-xdpi="96"
       inkscape:export-ydpi="96" />
  </g>
</svg>
